<svg width="945" height="8" viewBox="0 0 945 8" fill="none" xmlns="http://www.w3.org/2000/svg">
<path d="M941.927 0.651855H2.72541C2.36703 0.652132 2.01223 0.723168 1.68127 0.860632C1.35031 0.998095 1.04966 1.19932 0.796541 1.45302C0.543425 1.70672 0.342905 2.00775 0.206208 2.33903C0.0695119 2.67031 -0.000550325 3.02505 3.25501e-06 3.38343V5.12871C-0.000550325 5.48709 0.0695119 5.84183 0.206208 6.17311C0.342905 6.50439 0.543425 6.80542 0.796541 7.05912C1.04966 7.31282 1.35031 7.51456 1.68127 7.65202C2.01223 7.78949 2.36703 7.86001 2.72541 7.86029H941.927C942.286 7.86015 942.641 7.78944 942.972 7.65202C943.303 7.51461 943.603 7.31336 943.857 7.05963C944.11 6.80591 944.31 6.50496 944.447 6.17362C944.584 5.84228 944.654 5.48713 944.653 5.12871V3.38343C944.654 3.02502 944.584 2.67038 944.447 2.33903C944.31 2.00769 944.11 1.70624 943.857 1.45251C943.603 1.19878 943.303 0.997531 942.972 0.860117C942.641 0.722703 942.286 0.651993 941.927 0.651855Z" fill="#D5DAE1"/>
</svg>
